<svg width="32" height="32" viewBox="0 0 32 32" fill="none" xmlns="http://www.w3.org/2000/svg">
<g clip-path="url(#clip0_114_2)">
<rect width="32" height="32" rx="6" fill="#0A0A0A"/>
<g filter="url(#filter0_f_114_2)">
<path d="M7.50006 11C9.10006 4.2 10.6667 4.16667 13.5 6C15.9 3.6 17.1666 14.3333 18.5 16.5C18.8333 18.5 26.4001 18.1 28.0001 20.5C30.0001 23.5 27.7953 22.5683 23.5 24C22 24.5 23.5 23 18.5 25.5C13.5 28 5.00006 26 7.00006 23.5C9.00006 21 5.50006 19.5 7.50006 11Z" fill="#F0EDEC" fill-opacity="0.3"/>
</g>
<path d="M10 7.58775C10 7.19592 10.1929 7 10.5788 7H12.6772C13.0631 7 13.256 7.19592 13.256 7.58775V21.8163H22.4212C22.598 21.8163 22.7347 21.8735 22.8312 21.9878C22.9437 22.0857 23 22.2245 23 22.4041V24.4122C23 24.5918 22.9437 24.7388 22.8312 24.8531C22.7347 24.951 22.598 25 22.4212 25H10.5788C10.402 25 10.2573 24.951 10.1447 24.8531C10.0482 24.7388 10 24.5918 10 24.4122V7.58775Z" fill="#F0EDEC"/>
</g>
<defs>
<filter id="filter0_f_114_2" x="-0.299072" y="-2.03003" width="36.0441" height="35.679" filterUnits="userSpaceOnUse" color-interpolation-filters="sRGB">
<feFlood flood-opacity="0" result="BackgroundImageFix"/>
<feBlend mode="normal" in="SourceGraphic" in2="BackgroundImageFix" result="shape"/>
<feGaussianBlur stdDeviation="3.5" result="effect1_foregroundBlur_114_2"/>
</filter>
<clipPath id="clip0_114_2">
<rect width="32" height="32" rx="6" fill="white"/>
</clipPath>
</defs>
</svg>
